<mxfile host="app.diagrams.net" agent="Mozilla/5.0 (Windows NT 10.0; Win64; x64) AppleWebKit/537.36 (KHTML, like Gecko) Chrome/140.0.0.0 Safari/537.36 Edg/140.0.0.0" version="28.2.3">
  <diagram name="Página-1" id="0OIFloamGlwX3llowbex">
    <mxGraphModel dx="1418" dy="786" grid="1" gridSize="10" guides="1" tooltips="1" connect="1" arrows="1" fold="1" page="1" pageScale="1" pageWidth="827" pageHeight="1169" math="0" shadow="0">
      <root>
        <mxCell id="0" />
        <mxCell id="1" parent="0" />
        <mxCell id="fd-ozBmA7SfnkFIcjYbO-1" value="" style="ellipse;whiteSpace=wrap;html=1;align=left;fillColor=#f8cecc;strokeColor=#b85450;" vertex="1" parent="1">
          <mxGeometry x="354" y="20" width="120" height="80" as="geometry" />
        </mxCell>
        <mxCell id="fd-ozBmA7SfnkFIcjYbO-2" value="Fim" style="ellipse;whiteSpace=wrap;html=1;fillColor=#f8cecc;strokeColor=#b85450;" vertex="1" parent="1">
          <mxGeometry x="354" y="720" width="120" height="80" as="geometry" />
        </mxCell>
        <mxCell id="fd-ozBmA7SfnkFIcjYbO-3" value="Ler P1,P2,P3" style="rounded=0;whiteSpace=wrap;html=1;fillColor=#fff2cc;strokeColor=#d6b656;" vertex="1" parent="1">
          <mxGeometry x="354" y="200" width="120" height="60" as="geometry" />
        </mxCell>
        <mxCell id="fd-ozBmA7SfnkFIcjYbO-4" value="" style="endArrow=classic;html=1;rounded=0;" edge="1" parent="1" source="fd-ozBmA7SfnkFIcjYbO-1" target="fd-ozBmA7SfnkFIcjYbO-3">
          <mxGeometry width="50" height="50" relative="1" as="geometry">
            <mxPoint x="360" y="190" as="sourcePoint" />
            <mxPoint x="410" y="140" as="targetPoint" />
          </mxGeometry>
        </mxCell>
        <mxCell id="fd-ozBmA7SfnkFIcjYbO-5" value="P1&amp;gt;P2 e P1&amp;gt;P3" style="rhombus;whiteSpace=wrap;html=1;fillColor=#dae8fc;strokeColor=#6c8ebf;" vertex="1" parent="1">
          <mxGeometry x="374" y="260" width="80" height="80" as="geometry" />
        </mxCell>
        <mxCell id="fd-ozBmA7SfnkFIcjYbO-6" value="" style="endArrow=classic;html=1;rounded=0;" edge="1" parent="1" source="fd-ozBmA7SfnkFIcjYbO-3" target="fd-ozBmA7SfnkFIcjYbO-5">
          <mxGeometry width="50" height="50" relative="1" as="geometry">
            <mxPoint x="450" y="340" as="sourcePoint" />
            <mxPoint x="500" y="290" as="targetPoint" />
          </mxGeometry>
        </mxCell>
        <mxCell id="fd-ozBmA7SfnkFIcjYbO-7" value="" style="endArrow=classic;html=1;rounded=0;" edge="1" parent="1" source="fd-ozBmA7SfnkFIcjYbO-5" target="fd-ozBmA7SfnkFIcjYbO-12">
          <mxGeometry width="50" height="50" relative="1" as="geometry">
            <mxPoint x="500" y="430" as="sourcePoint" />
            <mxPoint x="130" y="390" as="targetPoint" />
          </mxGeometry>
        </mxCell>
        <mxCell id="fd-ozBmA7SfnkFIcjYbO-22" value="NÃO" style="edgeLabel;html=1;align=center;verticalAlign=middle;resizable=0;points=[];" vertex="1" connectable="0" parent="fd-ozBmA7SfnkFIcjYbO-7">
          <mxGeometry x="0.12" relative="1" as="geometry">
            <mxPoint as="offset" />
          </mxGeometry>
        </mxCell>
        <mxCell id="fd-ozBmA7SfnkFIcjYbO-12" value="P2&amp;gt;P3" style="rhombus;whiteSpace=wrap;html=1;fillColor=#dae8fc;strokeColor=#6c8ebf;" vertex="1" parent="1">
          <mxGeometry x="70" y="260" width="80" height="80" as="geometry" />
        </mxCell>
        <mxCell id="fd-ozBmA7SfnkFIcjYbO-13" value="" style="endArrow=classic;html=1;rounded=0;entryX=0.25;entryY=0;entryDx=0;entryDy=0;" edge="1" parent="1" source="fd-ozBmA7SfnkFIcjYbO-12" target="fd-ozBmA7SfnkFIcjYbO-14">
          <mxGeometry width="50" height="50" relative="1" as="geometry">
            <mxPoint x="105" y="530" as="sourcePoint" />
            <mxPoint x="130" y="560" as="targetPoint" />
          </mxGeometry>
        </mxCell>
        <mxCell id="fd-ozBmA7SfnkFIcjYbO-24" value="SIM" style="edgeLabel;html=1;align=center;verticalAlign=middle;resizable=0;points=[];" vertex="1" connectable="0" parent="fd-ozBmA7SfnkFIcjYbO-13">
          <mxGeometry x="0.219" y="2" relative="1" as="geometry">
            <mxPoint as="offset" />
          </mxGeometry>
        </mxCell>
        <mxCell id="fd-ozBmA7SfnkFIcjYbO-14" value="Escrever P2" style="shape=parallelogram;perimeter=parallelogramPerimeter;whiteSpace=wrap;html=1;fixedSize=1;" vertex="1" parent="1">
          <mxGeometry x="80" y="430" width="120" height="60" as="geometry" />
        </mxCell>
        <mxCell id="fd-ozBmA7SfnkFIcjYbO-15" value="" style="endArrow=classic;html=1;rounded=0;" edge="1" parent="1" source="fd-ozBmA7SfnkFIcjYbO-5" target="fd-ozBmA7SfnkFIcjYbO-16">
          <mxGeometry width="50" height="50" relative="1" as="geometry">
            <mxPoint x="170" y="460" as="sourcePoint" />
            <mxPoint x="410" y="410" as="targetPoint" />
          </mxGeometry>
        </mxCell>
        <mxCell id="fd-ozBmA7SfnkFIcjYbO-23" value="NÃO" style="edgeLabel;html=1;align=center;verticalAlign=middle;resizable=0;points=[];" vertex="1" connectable="0" parent="fd-ozBmA7SfnkFIcjYbO-15">
          <mxGeometry x="-0.7193" y="3" relative="1" as="geometry">
            <mxPoint x="-3" y="17" as="offset" />
          </mxGeometry>
        </mxCell>
        <mxCell id="fd-ozBmA7SfnkFIcjYbO-16" value="Escrever P3" style="shape=parallelogram;perimeter=parallelogramPerimeter;whiteSpace=wrap;html=1;fixedSize=1;" vertex="1" parent="1">
          <mxGeometry x="354" y="430" width="120" height="60" as="geometry" />
        </mxCell>
        <mxCell id="fd-ozBmA7SfnkFIcjYbO-17" value="" style="endArrow=classic;html=1;rounded=0;" edge="1" parent="1" source="fd-ozBmA7SfnkFIcjYbO-16" target="fd-ozBmA7SfnkFIcjYbO-2">
          <mxGeometry width="50" height="50" relative="1" as="geometry">
            <mxPoint x="380" y="550" as="sourcePoint" />
            <mxPoint x="430" y="500" as="targetPoint" />
          </mxGeometry>
        </mxCell>
        <mxCell id="fd-ozBmA7SfnkFIcjYbO-18" value="" style="endArrow=classic;html=1;rounded=0;" edge="1" parent="1" source="fd-ozBmA7SfnkFIcjYbO-14" target="fd-ozBmA7SfnkFIcjYbO-2">
          <mxGeometry width="50" height="50" relative="1" as="geometry">
            <mxPoint x="420" y="560" as="sourcePoint" />
            <mxPoint x="420" y="790" as="targetPoint" />
          </mxGeometry>
        </mxCell>
        <mxCell id="fd-ozBmA7SfnkFIcjYbO-27" value="" style="endArrow=classic;html=1;rounded=0;" edge="1" parent="1" source="fd-ozBmA7SfnkFIcjYbO-5" target="fd-ozBmA7SfnkFIcjYbO-28">
          <mxGeometry width="50" height="50" relative="1" as="geometry">
            <mxPoint x="470" y="350" as="sourcePoint" />
            <mxPoint x="630" y="450" as="targetPoint" />
            <Array as="points">
              <mxPoint x="620" y="300" />
            </Array>
          </mxGeometry>
        </mxCell>
        <mxCell id="fd-ozBmA7SfnkFIcjYbO-30" value="SIM" style="edgeLabel;html=1;align=center;verticalAlign=middle;resizable=0;points=[];" vertex="1" connectable="0" parent="fd-ozBmA7SfnkFIcjYbO-27">
          <mxGeometry x="0.3581" y="1" relative="1" as="geometry">
            <mxPoint as="offset" />
          </mxGeometry>
        </mxCell>
        <mxCell id="fd-ozBmA7SfnkFIcjYbO-28" value="Escrever P1" style="shape=parallelogram;perimeter=parallelogramPerimeter;whiteSpace=wrap;html=1;fixedSize=1;" vertex="1" parent="1">
          <mxGeometry x="560" y="430" width="120" height="60" as="geometry" />
        </mxCell>
        <mxCell id="fd-ozBmA7SfnkFIcjYbO-29" value="" style="endArrow=classic;html=1;rounded=0;" edge="1" parent="1" source="fd-ozBmA7SfnkFIcjYbO-28" target="fd-ozBmA7SfnkFIcjYbO-2">
          <mxGeometry width="50" height="50" relative="1" as="geometry">
            <mxPoint x="560" y="610" as="sourcePoint" />
            <mxPoint x="610" y="560" as="targetPoint" />
          </mxGeometry>
        </mxCell>
      </root>
    </mxGraphModel>
  </diagram>
</mxfile>
